# xmcd CD database file
#
# Track frame offsets:
#	150
#	16232
#	27562
#	42500
#	55947
#	68855
#	83512
#	95127
#	105430
#	118080
#	132272
#	145420
#	159750
#	173642
#	184530
#	197902
#	212772
#	226407
#	241280
#	255890
#	267317
#	279185
#	291990
#	306352
#	320017
#
# Disc length: 4467 seconds
#
# Revision: 0
# Processed by: cddbd v1.5PL3 Copyright (c) Steve Scherf et al.
# Submitted via: CDex 1.51
#
DISCID=65117119
DTITLE=Benny Goodman - Benny Rides Again [CD2 of 2)
DYEAR=1900
DGENRE=Jazz
TTITLE0=Tuesday at Ten
TTITLE1=Down, Down, Down
TTITLE2=The Count
TTITLE3=Pound Ridge
TTITLE4=Elmer's Tune
TTITLE5=The Birth of the Blues
TTITLE6=The Earl
TTITLE7=Let's Do It
TTITLE8=Caprice XXIV Paganini
TTITLE9=My Old Flame
TTITLE10=Clarinet a la King
TTITLE11=Jersey Bounce
TTITLE12=If You Build a Better Mousetrap
TTITLE13=Darktown Strutters Ball
TTITLE14=A String of Pearls
TTITLE15=I've Got a Gal in Kalamazoo
TTITLE16=Idaho
TTITLE17=Six Flats Unfurnished
TTITLE18=Why Don't You Do Right?
TTITLE19=After You've Gone
TTITLE20=Mission to Moscow
TTITLE21=Clarinade
TTITLE22=My Guy's Come Back
TTITLE23=Fascinating Rhythm
TTITLE24=Rattle and Roll
EXTD=
EXTT0=
EXTT1=
EXTT2=
EXTT3=
EXTT4=
EXTT5=
EXTT6=
EXTT7=
EXTT8=
EXTT9=
EXTT10=
EXTT11=
EXTT12=
EXTT13=
EXTT14=
EXTT15=
EXTT16=
EXTT17=
EXTT18=
EXTT19=
EXTT20=
EXTT21=
EXTT22=
EXTT23=
EXTT24=
PLAYORDER=
